<svg width="40" height="40" viewBox="0 0 40 40" fill="none" xmlns="http://www.w3.org/2000/svg">
  <path
    d="M20 0.555603C9.2861 0.555603 0.555542 9.28616 0.555542 20C0.555542 30.7139 9.2861 39.4445 20 39.4445C30.7139 39.4445 39.4444 30.7139 39.4444 20C39.4444 9.28616 30.7139 0.555603 20 0.555603ZM27.7778 21.4584H21.4583V27.7778C21.4583 28.575 20.7972 29.2362 20 29.2362C19.2028 29.2362 18.5417 28.575 18.5417 27.7778V21.4584H12.2222C11.425 21.4584 10.7639 20.7973 10.7639 20C10.7639 19.2028 11.425 18.5417 12.2222 18.5417H18.5417V12.2223C18.5417 11.425 19.2028 10.7639 20 10.7639C20.7972 10.7639 21.4583 11.425 21.4583 12.2223V18.5417H27.7778C28.575 18.5417 29.2361 19.2028 29.2361 20C29.2361 20.7973 28.575 21.4584 27.7778 21.4584Z"
    fill="#FFC50B" />
</svg>
  